<mxfile host="Electron" agent="Mozilla/5.0 (Windows NT 10.0; Win64; x64) AppleWebKit/537.36 (KHTML, like Gecko) draw.io/28.1.2 Chrome/138.0.7204.243 Electron/37.4.0 Safari/537.36" version="28.1.2">
  <diagram name="Страница — 1" id="aQO6wImOygcN_fj9YdqJ">
    <mxGraphModel dx="692" dy="595" grid="1" gridSize="10" guides="1" tooltips="1" connect="1" arrows="1" fold="1" page="1" pageScale="1" pageWidth="827" pageHeight="1169" math="0" shadow="0">
      <root>
        <mxCell id="0" />
        <mxCell id="1" parent="0" />
        <mxCell id="8k_-EUJN0VSNiPV6PIDz-13" value="" style="edgeStyle=orthogonalEdgeStyle;rounded=0;orthogonalLoop=1;jettySize=auto;html=1;" edge="1" parent="1" source="8k_-EUJN0VSNiPV6PIDz-1" target="8k_-EUJN0VSNiPV6PIDz-2">
          <mxGeometry relative="1" as="geometry" />
        </mxCell>
        <mxCell id="8k_-EUJN0VSNiPV6PIDz-1" value="Начало" style="rounded=1;whiteSpace=wrap;html=1;" vertex="1" parent="1">
          <mxGeometry x="75" y="40" width="120" height="60" as="geometry" />
        </mxCell>
        <mxCell id="8k_-EUJN0VSNiPV6PIDz-32" value="" style="edgeStyle=orthogonalEdgeStyle;rounded=0;orthogonalLoop=1;jettySize=auto;html=1;" edge="1" parent="1" source="8k_-EUJN0VSNiPV6PIDz-2" target="8k_-EUJN0VSNiPV6PIDz-31">
          <mxGeometry relative="1" as="geometry" />
        </mxCell>
        <mxCell id="8k_-EUJN0VSNiPV6PIDz-2" value="Прихожу на работу" style="rounded=0;whiteSpace=wrap;html=1;" vertex="1" parent="1">
          <mxGeometry x="75" y="130" width="120" height="60" as="geometry" />
        </mxCell>
        <mxCell id="8k_-EUJN0VSNiPV6PIDz-16" value="" style="edgeStyle=orthogonalEdgeStyle;rounded=0;orthogonalLoop=1;jettySize=auto;html=1;" edge="1" parent="1" source="8k_-EUJN0VSNiPV6PIDz-3">
          <mxGeometry relative="1" as="geometry">
            <mxPoint x="135" y="400" as="targetPoint" />
          </mxGeometry>
        </mxCell>
        <mxCell id="8k_-EUJN0VSNiPV6PIDz-3" value="Приветствую учеников" style="shape=parallelogram;perimeter=parallelogramPerimeter;whiteSpace=wrap;html=1;fixedSize=1;" vertex="1" parent="1">
          <mxGeometry x="75" y="310" width="120" height="60" as="geometry" />
        </mxCell>
        <mxCell id="8k_-EUJN0VSNiPV6PIDz-18" value="" style="edgeStyle=orthogonalEdgeStyle;rounded=0;orthogonalLoop=1;jettySize=auto;html=1;" edge="1" parent="1" target="8k_-EUJN0VSNiPV6PIDz-17">
          <mxGeometry relative="1" as="geometry">
            <mxPoint x="232.5" y="440" as="sourcePoint" />
          </mxGeometry>
        </mxCell>
        <mxCell id="8k_-EUJN0VSNiPV6PIDz-19" value="Нет" style="edgeLabel;html=1;align=center;verticalAlign=middle;resizable=0;points=[];" vertex="1" connectable="0" parent="8k_-EUJN0VSNiPV6PIDz-18">
          <mxGeometry x="-0.2894" y="4" relative="1" as="geometry">
            <mxPoint as="offset" />
          </mxGeometry>
        </mxCell>
        <mxCell id="8k_-EUJN0VSNiPV6PIDz-35" style="edgeStyle=orthogonalEdgeStyle;rounded=0;orthogonalLoop=1;jettySize=auto;html=1;exitX=0.5;exitY=1;exitDx=0;exitDy=0;entryX=0;entryY=0.5;entryDx=0;entryDy=0;" edge="1" parent="1" source="8k_-EUJN0VSNiPV6PIDz-4" target="8k_-EUJN0VSNiPV6PIDz-25">
          <mxGeometry relative="1" as="geometry">
            <Array as="points">
              <mxPoint x="135" y="640" />
            </Array>
          </mxGeometry>
        </mxCell>
        <mxCell id="8k_-EUJN0VSNiPV6PIDz-36" value="Да" style="edgeLabel;html=1;align=center;verticalAlign=middle;resizable=0;points=[];" vertex="1" connectable="0" parent="8k_-EUJN0VSNiPV6PIDz-35">
          <mxGeometry x="-0.5372" y="-2" relative="1" as="geometry">
            <mxPoint x="2" y="15" as="offset" />
          </mxGeometry>
        </mxCell>
        <mxCell id="8k_-EUJN0VSNiPV6PIDz-4" value="Присутствуют&amp;nbsp;&lt;div&gt;все учащиеся?&lt;/div&gt;" style="rhombus;whiteSpace=wrap;html=1;" vertex="1" parent="1">
          <mxGeometry x="47.5" y="400" width="175" height="80" as="geometry" />
        </mxCell>
        <mxCell id="8k_-EUJN0VSNiPV6PIDz-24" value="" style="edgeStyle=orthogonalEdgeStyle;rounded=0;orthogonalLoop=1;jettySize=auto;html=1;" edge="1" parent="1" source="8k_-EUJN0VSNiPV6PIDz-17">
          <mxGeometry relative="1" as="geometry">
            <mxPoint x="350" y="500" as="targetPoint" />
          </mxGeometry>
        </mxCell>
        <mxCell id="8k_-EUJN0VSNiPV6PIDz-17" value="Открываю журнал" style="rounded=0;whiteSpace=wrap;html=1;" vertex="1" parent="1">
          <mxGeometry x="290" y="410" width="120" height="60" as="geometry" />
        </mxCell>
        <mxCell id="8k_-EUJN0VSNiPV6PIDz-26" value="" style="edgeStyle=orthogonalEdgeStyle;rounded=0;orthogonalLoop=1;jettySize=auto;html=1;" edge="1" parent="1" target="8k_-EUJN0VSNiPV6PIDz-25">
          <mxGeometry relative="1" as="geometry">
            <mxPoint x="350" y="560" as="sourcePoint" />
          </mxGeometry>
        </mxCell>
        <mxCell id="8k_-EUJN0VSNiPV6PIDz-38" value="" style="edgeStyle=orthogonalEdgeStyle;rounded=0;orthogonalLoop=1;jettySize=auto;html=1;" edge="1" parent="1" source="8k_-EUJN0VSNiPV6PIDz-25" target="8k_-EUJN0VSNiPV6PIDz-37">
          <mxGeometry relative="1" as="geometry" />
        </mxCell>
        <mxCell id="8k_-EUJN0VSNiPV6PIDz-25" value="Начинаю разбор новой темы" style="shape=parallelogram;perimeter=parallelogramPerimeter;whiteSpace=wrap;html=1;fixedSize=1;" vertex="1" parent="1">
          <mxGeometry x="290" y="610" width="120" height="60" as="geometry" />
        </mxCell>
        <mxCell id="8k_-EUJN0VSNiPV6PIDz-34" value="" style="edgeStyle=orthogonalEdgeStyle;rounded=0;orthogonalLoop=1;jettySize=auto;html=1;" edge="1" parent="1" source="8k_-EUJN0VSNiPV6PIDz-31" target="8k_-EUJN0VSNiPV6PIDz-3">
          <mxGeometry relative="1" as="geometry" />
        </mxCell>
        <mxCell id="8k_-EUJN0VSNiPV6PIDz-31" value="Захожу в класс" style="rounded=0;whiteSpace=wrap;html=1;" vertex="1" parent="1">
          <mxGeometry x="75" y="210" width="120" height="60" as="geometry" />
        </mxCell>
        <mxCell id="8k_-EUJN0VSNiPV6PIDz-42" value="" style="edgeStyle=orthogonalEdgeStyle;rounded=0;orthogonalLoop=1;jettySize=auto;html=1;" edge="1" parent="1" source="8k_-EUJN0VSNiPV6PIDz-37" target="8k_-EUJN0VSNiPV6PIDz-41">
          <mxGeometry relative="1" as="geometry" />
        </mxCell>
        <mxCell id="8k_-EUJN0VSNiPV6PIDz-44" value="Да" style="edgeLabel;html=1;align=center;verticalAlign=middle;resizable=0;points=[];" vertex="1" connectable="0" parent="8k_-EUJN0VSNiPV6PIDz-42">
          <mxGeometry x="-0.512" relative="1" as="geometry">
            <mxPoint y="8" as="offset" />
          </mxGeometry>
        </mxCell>
        <mxCell id="8k_-EUJN0VSNiPV6PIDz-43" value="" style="edgeStyle=orthogonalEdgeStyle;rounded=0;orthogonalLoop=1;jettySize=auto;html=1;" edge="1" parent="1" source="8k_-EUJN0VSNiPV6PIDz-37" target="8k_-EUJN0VSNiPV6PIDz-40">
          <mxGeometry relative="1" as="geometry" />
        </mxCell>
        <mxCell id="8k_-EUJN0VSNiPV6PIDz-45" value="Нет" style="edgeLabel;html=1;align=center;verticalAlign=middle;resizable=0;points=[];" vertex="1" connectable="0" parent="8k_-EUJN0VSNiPV6PIDz-43">
          <mxGeometry x="0.0756" y="4" relative="1" as="geometry">
            <mxPoint as="offset" />
          </mxGeometry>
        </mxCell>
        <mxCell id="8k_-EUJN0VSNiPV6PIDz-37" value="Ученики усвоили новый материал?" style="rhombus;whiteSpace=wrap;html=1;" vertex="1" parent="1">
          <mxGeometry x="257.5" y="710" width="185" height="80" as="geometry" />
        </mxCell>
        <mxCell id="8k_-EUJN0VSNiPV6PIDz-39" value="Отмечаю отсутствующих" style="rounded=0;whiteSpace=wrap;html=1;" vertex="1" parent="1">
          <mxGeometry x="290" y="500" width="120" height="60" as="geometry" />
        </mxCell>
        <mxCell id="8k_-EUJN0VSNiPV6PIDz-46" style="edgeStyle=orthogonalEdgeStyle;rounded=0;orthogonalLoop=1;jettySize=auto;html=1;exitX=0.5;exitY=1;exitDx=0;exitDy=0;entryX=0.5;entryY=1;entryDx=0;entryDy=0;" edge="1" parent="1" source="8k_-EUJN0VSNiPV6PIDz-40" target="8k_-EUJN0VSNiPV6PIDz-37">
          <mxGeometry relative="1" as="geometry">
            <mxPoint x="170" y="970" as="targetPoint" />
            <Array as="points">
              <mxPoint x="570" y="850" />
              <mxPoint x="350" y="850" />
            </Array>
          </mxGeometry>
        </mxCell>
        <mxCell id="8k_-EUJN0VSNiPV6PIDz-40" value="Даю ответы на возникшие вопросы" style="rounded=0;whiteSpace=wrap;html=1;" vertex="1" parent="1">
          <mxGeometry x="510" y="720" width="120" height="60" as="geometry" />
        </mxCell>
        <mxCell id="8k_-EUJN0VSNiPV6PIDz-48" value="" style="edgeStyle=orthogonalEdgeStyle;rounded=0;orthogonalLoop=1;jettySize=auto;html=1;" edge="1" parent="1" source="8k_-EUJN0VSNiPV6PIDz-41" target="8k_-EUJN0VSNiPV6PIDz-47">
          <mxGeometry relative="1" as="geometry" />
        </mxCell>
        <mxCell id="8k_-EUJN0VSNiPV6PIDz-41" value="Провожу рефлексивные мероприятия для закрепления" style="rounded=0;whiteSpace=wrap;html=1;" vertex="1" parent="1">
          <mxGeometry x="90" y="720" width="120" height="60" as="geometry" />
        </mxCell>
        <mxCell id="8k_-EUJN0VSNiPV6PIDz-50" value="" style="edgeStyle=orthogonalEdgeStyle;rounded=0;orthogonalLoop=1;jettySize=auto;html=1;" edge="1" parent="1" source="8k_-EUJN0VSNiPV6PIDz-47" target="8k_-EUJN0VSNiPV6PIDz-49">
          <mxGeometry relative="1" as="geometry" />
        </mxCell>
        <mxCell id="8k_-EUJN0VSNiPV6PIDz-47" value="Завершаю урок" style="shape=parallelogram;perimeter=parallelogramPerimeter;whiteSpace=wrap;html=1;fixedSize=1;" vertex="1" parent="1">
          <mxGeometry x="90" y="810" width="120" height="60" as="geometry" />
        </mxCell>
        <mxCell id="8k_-EUJN0VSNiPV6PIDz-52" value="" style="edgeStyle=orthogonalEdgeStyle;rounded=0;orthogonalLoop=1;jettySize=auto;html=1;" edge="1" parent="1" source="8k_-EUJN0VSNiPV6PIDz-49" target="8k_-EUJN0VSNiPV6PIDz-51">
          <mxGeometry relative="1" as="geometry" />
        </mxCell>
        <mxCell id="8k_-EUJN0VSNiPV6PIDz-49" value="Прощаюсь с ученикам" style="shape=parallelogram;perimeter=parallelogramPerimeter;whiteSpace=wrap;html=1;fixedSize=1;" vertex="1" parent="1">
          <mxGeometry x="90" y="900" width="120" height="60" as="geometry" />
        </mxCell>
        <mxCell id="8k_-EUJN0VSNiPV6PIDz-54" value="" style="edgeStyle=orthogonalEdgeStyle;rounded=0;orthogonalLoop=1;jettySize=auto;html=1;" edge="1" parent="1" source="8k_-EUJN0VSNiPV6PIDz-51" target="8k_-EUJN0VSNiPV6PIDz-53">
          <mxGeometry relative="1" as="geometry" />
        </mxCell>
        <mxCell id="8k_-EUJN0VSNiPV6PIDz-51" value="Выхожу из класса" style="rounded=0;whiteSpace=wrap;html=1;" vertex="1" parent="1">
          <mxGeometry x="90" y="990" width="120" height="60" as="geometry" />
        </mxCell>
        <mxCell id="8k_-EUJN0VSNiPV6PIDz-56" value="" style="edgeStyle=orthogonalEdgeStyle;rounded=0;orthogonalLoop=1;jettySize=auto;html=1;" edge="1" parent="1" source="8k_-EUJN0VSNiPV6PIDz-53" target="8k_-EUJN0VSNiPV6PIDz-55">
          <mxGeometry relative="1" as="geometry" />
        </mxCell>
        <mxCell id="8k_-EUJN0VSNiPV6PIDz-53" value="Ухожу с работы" style="rounded=0;whiteSpace=wrap;html=1;" vertex="1" parent="1">
          <mxGeometry x="90" y="1090" width="120" height="60" as="geometry" />
        </mxCell>
        <mxCell id="8k_-EUJN0VSNiPV6PIDz-55" value="Конец" style="rounded=1;whiteSpace=wrap;html=1;" vertex="1" parent="1">
          <mxGeometry x="294" y="1090" width="120" height="60" as="geometry" />
        </mxCell>
        <mxCell id="8k_-EUJN0VSNiPV6PIDz-57" value="Алгоритм проведения урока&amp;nbsp;&lt;div&gt;по освоению новых знаний&lt;/div&gt;" style="text;strokeColor=none;fillColor=none;html=1;fontSize=24;fontStyle=1;verticalAlign=middle;align=center;" vertex="1" parent="1">
          <mxGeometry x="370" y="110" width="100" height="40" as="geometry" />
        </mxCell>
      </root>
    </mxGraphModel>
  </diagram>
</mxfile>
